<svg xmlns="http://www.w3.org/2000/svg" version="1.0" width="512.000000pt" height="512.000000pt" viewBox="0 0 512.000000 512.000000" preserveAspectRatio="xMidYMid meet">

<g transform="translate(0.000000,512.000000) scale(0.100000,-0.100000)" fill="#e2012d" stroke="none">
<path d="M3728 3474 c-5 -4 -8 -35 -8 -69 0 -70 -20 -199 -50 -321 -52 -208 -158 -416 -310 -605 l-52 -64 58 -3 c73 -4 198 34 269 80 135 88 228 237 250 401 l6 47 -68 0 -68 0 75 37 c169 82 310 289 310 457 l0 36 -128 0 c-71 0 -162 3 -203 6 -41 3 -77 3 -81 -2z" fill="#e2012d"/>
<path d="M1644 3380 c15 -182 74 -388 161 -565 97 -198 208 -344 385 -504 58 -52 168 -152 245 -222 77 -70 152 -136 166 -148 l26 -20 252 220 c138 121 281 253 317 293 237 262 382 598 410 948 l7 83 -29 -25 c-16 -14 -76 -69 -134 -121 -113 -103 -719 -643 -782 -697 -21 -19 -42 -32 -47 -30 -6 2 -105 89 -222 193 -117 105 -324 288 -459 409 -135 120 -258 230 -274 245 l-28 26 6 -85z" fill="#e2012d"/>
<path d="M1110 3412 c0 -159 124 -351 290 -448 l75 -44 -59 0 -59 0 6 -53 c28 -270 268 -487 539 -487 26 0 48 2 48 5 0 3 -28 40 -62 83 -214 269 -316 519 -347 852 -6 63 -11 118 -11 123 0 4 -94 7 -210 7 l-210 0 0 -38z" fill="#e2012d"/>
</g>
</svg>